<svg width="572" height="444" viewBox="0 0 572 444" fill="none" xmlns="http://www.w3.org/2000/svg">
<path d="M458 26H128C121.373 26 116 31.3726 116 38V381C116 387.627 121.373 393 128 393H458C464.627 393 470 387.627 470 381V38C470 31.3726 464.627 26 458 26Z" fill="#F5F4FF"/>
<path d="M432 39H102C95.3726 39 90 44.3726 90 51V394C90 400.627 95.3726 406 102 406H432C438.627 406 444 400.627 444 394V51C444 44.3726 438.627 39 432 39Z" fill="#EEEDFB"/>
<path d="M82 49.5H466C472.351 49.5 477.5 54.6487 477.5 61V404C477.5 410.351 472.351 415.5 466 415.5H82C75.6487 415.5 70.5 410.351 70.5 404V61C70.5 54.6487 75.6487 49.5 82 49.5Z" fill="white" stroke="#DFE1E6"/>
<g opacity="0.8">
<path d="M350.387 181.59H279.788C278.208 181.59 276.925 180.307 276.925 178.726C276.925 177.146 278.208 175.862 279.788 175.862H350.387C351.967 175.862 353.25 177.146 353.25 178.726C353.25 180.307 351.967 181.59 350.387 181.59Z" fill="#E1DCFF"/>
<path d="M350.387 114.728H279.788C278.208 114.728 276.925 113.445 276.925 111.864C276.925 110.283 278.208 109 279.788 109H350.387C351.967 109 353.25 110.283 353.25 111.864C353.25 113.445 351.967 114.728 350.387 114.728Z" fill="#E1DCFF"/>
<path d="M423.467 181.59H389.599C388.019 181.59 386.736 180.307 386.736 178.726C386.736 177.146 388.019 175.862 389.599 175.862H423.467C425.047 175.862 426.33 177.146 426.33 178.726C426.33 180.307 425.047 181.59 423.467 181.59Z" fill="#F8EDFF"/>
<path d="M423.468 181.894H389.599C387.856 181.894 386.433 180.474 386.433 178.726C386.433 176.979 387.852 175.559 389.599 175.559H423.468C425.211 175.559 426.634 176.979 426.634 178.726C426.634 180.474 425.215 181.894 423.468 181.894ZM389.599 176.169C388.189 176.169 387.04 177.316 387.04 178.73C387.04 180.143 388.189 181.29 389.599 181.29H423.468C424.878 181.29 426.027 180.143 426.027 178.73C426.027 177.316 424.878 176.169 423.468 176.169H389.599Z" fill="#F8EDFF"/>
<path d="M350.387 198.768H279.788C278.208 198.768 276.925 197.485 276.925 195.904C276.925 194.323 278.208 193.04 279.788 193.04H350.387C351.967 193.04 353.25 194.323 353.25 195.904C353.25 197.485 351.967 198.768 350.387 198.768Z" fill="#E1DCFF"/>
<path d="M350.387 131.906H279.788C278.208 131.906 276.925 130.622 276.925 129.042C276.925 127.461 278.208 126.178 279.788 126.178H350.387C351.967 126.178 353.25 127.461 353.25 129.042C353.25 130.622 351.967 131.906 350.387 131.906Z" fill="#E1DCFF"/>
<path d="M400.494 198.768H366.626C365.046 198.768 363.763 197.485 363.763 195.904C363.763 194.323 365.046 193.04 366.626 193.04H400.494C402.074 193.04 403.357 194.323 403.357 195.904C403.357 197.485 402.074 198.768 400.494 198.768Z" fill="#F8EDFF"/>
<path d="M400.494 199.072H366.626C364.882 199.072 363.46 197.652 363.46 195.904C363.46 194.157 364.879 192.737 366.626 192.737H400.494C402.238 192.737 403.661 194.157 403.661 195.904C403.661 197.652 402.241 199.072 400.494 199.072ZM366.626 193.347C365.216 193.347 364.067 194.493 364.067 195.907C364.067 197.321 365.213 198.468 366.626 198.468H400.494C401.905 198.468 403.054 197.321 403.054 195.907C403.054 194.493 401.908 193.347 400.494 193.347H366.626Z" fill="#F8EDFF"/>
<path d="M425.616 198.768H414.961C413.381 198.768 412.098 197.485 412.098 195.904C412.098 194.323 413.378 193.04 414.961 193.04H425.616C427.196 193.04 428.479 194.323 428.479 195.904C428.479 197.485 427.196 198.768 425.616 198.768Z" fill="#F8EDFF"/>
<path d="M425.616 199.072H414.962C413.218 199.072 411.795 197.652 411.795 195.904C411.795 194.157 413.215 192.737 414.962 192.737H425.616C427.36 192.737 428.783 194.157 428.783 195.904C428.783 197.652 427.363 199.072 425.616 199.072ZM414.962 193.347C413.551 193.347 412.402 194.493 412.402 195.907C412.402 197.321 413.551 198.468 414.962 198.468H425.616C427.027 198.468 428.176 197.321 428.176 195.907C428.176 194.493 427.03 193.347 425.616 193.347H414.962Z" fill="#F8EDFF"/>
<path d="M316.835 251.895H282.967C281.386 251.895 280.104 250.614 280.104 249.031C280.104 247.45 281.386 246.167 282.967 246.167H316.835C318.415 246.167 319.698 247.447 319.698 249.031C319.698 250.611 318.415 251.895 316.835 251.895Z" fill="#F8EDFF"/>
<path d="M316.835 252.198H282.967C281.223 252.198 279.801 250.778 279.801 249.031C279.801 247.283 281.22 245.863 282.967 245.863H316.835C318.579 245.863 320.002 247.283 320.002 249.031C320.002 250.778 318.582 252.198 316.835 252.198ZM282.967 246.473C281.557 246.473 280.407 247.62 280.407 249.034C280.407 250.447 281.557 251.594 282.967 251.594H316.835C318.246 251.594 319.395 250.447 319.395 249.034C319.395 247.62 318.246 246.473 316.835 246.473H282.967Z" fill="#F8EDFF"/>
<path d="M316.835 320.714H282.967C281.386 320.714 280.104 319.434 280.104 317.85C280.104 316.269 281.386 314.986 282.967 314.986H316.835C318.415 314.986 319.698 316.266 319.698 317.85C319.698 319.43 318.415 320.714 316.835 320.714Z" fill="#F8EDFF"/>
<path d="M316.835 321.017H282.967C281.223 321.017 279.801 319.598 279.801 317.85C279.801 316.102 281.22 314.683 282.967 314.683H316.835C318.579 314.683 320.002 316.102 320.002 317.85C320.002 319.598 318.582 321.017 316.835 321.017ZM282.967 315.292C281.557 315.292 280.407 316.439 280.407 317.853C280.407 319.267 281.557 320.414 282.967 320.414H316.835C318.246 320.414 319.395 319.267 319.395 317.853C319.395 316.439 318.246 315.292 316.835 315.292H282.967Z" fill="#F8EDFF"/>
<path d="M448.832 251.895H350.546C348.966 251.895 347.683 250.614 347.683 249.031C347.683 247.45 348.966 246.167 350.546 246.167H448.832C450.412 246.167 451.695 247.447 451.695 249.031C451.695 250.611 450.412 251.895 448.832 251.895Z" fill="#F8EDFF"/>
<path d="M448.829 252.198H350.542C348.798 252.198 347.376 250.778 347.376 249.031C347.376 247.283 348.795 245.863 350.542 245.863H448.829C450.573 245.863 451.995 247.283 451.995 249.031C451.995 250.778 450.576 252.198 448.829 252.198ZM350.542 246.473C349.132 246.473 347.983 247.62 347.983 249.034C347.983 250.447 349.129 251.594 350.542 251.594H448.829C450.239 251.594 451.388 250.447 451.388 249.034C451.388 247.62 450.239 246.473 448.829 246.473H350.542Z" fill="#F8EDFF"/>
<path d="M448.832 320.714H350.546C348.966 320.714 347.683 319.434 347.683 317.85C347.683 316.269 348.966 314.986 350.546 314.986H448.832C450.412 314.986 451.695 316.266 451.695 317.85C451.695 319.43 450.412 320.714 448.832 320.714Z" fill="#F8EDFF"/>
<path d="M448.829 321.017H350.542C348.798 321.017 347.376 319.598 347.376 317.85C347.376 316.102 348.795 314.683 350.542 314.683H448.829C450.573 314.683 451.995 316.102 451.995 317.85C451.995 319.598 450.576 321.017 448.829 321.017ZM350.542 315.292C349.132 315.292 347.983 316.439 347.983 317.853C347.983 319.267 349.129 320.414 350.542 320.414H448.829C450.239 320.414 451.388 319.267 451.388 317.853C451.388 316.439 450.239 315.292 448.829 315.292H350.542Z" fill="#F8EDFF"/>
<path d="M348.876 262.659H315.01C313.429 262.659 312.147 263.941 312.147 265.522C312.147 267.103 313.429 268.384 315.01 268.384H348.876C350.457 268.384 351.739 267.103 351.739 265.522C351.739 263.941 350.457 262.659 348.876 262.659Z" fill="#E1DCFF"/>
<path d="M348.876 331.479H315.01C313.429 331.479 312.147 332.76 312.147 334.341C312.147 335.922 313.429 337.203 315.01 337.203H348.876C350.457 337.203 351.739 335.922 351.739 334.341C351.739 332.76 350.457 331.479 348.876 331.479Z" fill="#E1DCFF"/>
<path d="M380.918 215.791H310.319C308.738 215.791 307.456 214.511 307.456 212.927C307.456 211.347 308.738 210.063 310.319 210.063H380.918C382.498 210.063 383.781 211.347 383.781 212.927C383.781 214.508 382.501 215.791 380.918 215.791Z" fill="#F8EDFF"/>
<path d="M380.915 216.095H310.315C308.571 216.095 307.149 214.675 307.149 212.928C307.149 211.18 308.568 209.76 310.315 209.76H380.915C382.658 209.76 384.081 211.18 384.081 212.928C384.081 214.675 382.661 216.095 380.915 216.095ZM310.315 210.37C308.905 210.37 307.756 211.517 307.756 212.931C307.756 214.344 308.902 215.491 310.315 215.491H380.915C382.325 215.491 383.474 214.344 383.474 212.931C383.474 211.517 382.328 210.37 380.915 210.37H310.315Z" fill="#F8EDFF"/>
<path d="M380.918 148.929H310.319C308.738 148.929 307.456 147.648 307.456 146.065C307.456 144.484 308.738 143.201 310.319 143.201H380.918C382.498 143.201 383.781 144.484 383.781 146.065C383.781 147.645 382.501 148.929 380.918 148.929Z" fill="#F8EDFF"/>
<path d="M380.915 149.232H310.315C308.571 149.232 307.149 147.812 307.149 146.065C307.149 144.317 308.568 142.897 310.315 142.897H380.915C382.658 142.897 384.081 144.317 384.081 146.065C384.081 147.812 382.661 149.232 380.915 149.232ZM310.315 143.507C308.905 143.507 307.756 144.654 307.756 146.068C307.756 147.482 308.902 148.628 310.315 148.628H380.915C382.325 148.628 383.474 147.482 383.474 146.068C383.474 144.654 382.328 143.507 380.915 143.507H310.315Z" fill="#F8EDFF"/>
<path d="M429.034 260.902H395.169C393.588 260.902 392.306 262.184 392.306 263.765C392.306 265.346 393.588 266.627 395.169 266.627H429.034C430.615 266.627 431.897 265.346 431.897 263.765C431.897 262.184 430.615 260.902 429.034 260.902Z" fill="#F8EDFF"/>
<path d="M429.034 266.93H395.166C393.422 266.93 392 265.511 392 263.763C392 262.016 393.419 260.596 395.166 260.596H429.034C430.778 260.596 432.2 262.016 432.2 263.763C432.2 265.511 430.781 266.93 429.034 266.93ZM395.166 261.206C393.756 261.206 392.606 262.352 392.606 263.766C392.606 265.18 393.753 266.327 395.166 266.327H429.034C430.444 266.327 431.594 265.18 431.594 263.766C431.594 262.352 430.444 261.206 429.034 261.206H395.166Z" fill="#F8EDFF"/>
<path d="M429.034 329.722H395.169C393.588 329.722 392.306 331.003 392.306 332.584C392.306 334.165 393.588 335.447 395.169 335.447H429.034C430.615 335.447 431.897 334.165 431.897 332.584C431.897 331.003 430.615 329.722 429.034 329.722Z" fill="#F8EDFF"/>
<path d="M429.034 335.75H395.166C393.422 335.75 392 334.33 392 332.582C392 330.835 393.419 329.415 395.166 329.415H429.034C430.778 329.415 432.2 330.835 432.2 332.582C432.2 334.33 430.781 335.75 429.034 335.75ZM395.166 330.025C393.756 330.025 392.606 331.172 392.606 332.585C392.606 333.999 393.753 335.146 395.166 335.146H429.034C430.444 335.146 431.594 333.999 431.594 332.585C431.594 331.172 430.444 330.025 429.034 330.025H395.166Z" fill="#F8EDFF"/>
<path d="M380.914 277.929H282.97C281.389 277.929 280.107 279.21 280.107 280.791C280.107 282.372 281.389 283.654 282.97 283.654H380.914C382.495 283.654 383.777 282.372 383.777 280.791C383.777 279.21 382.495 277.929 380.914 277.929Z" fill="#E1DCFF"/>
<path d="M380.914 346.748H282.97C281.389 346.748 280.107 348.03 280.107 349.611C280.107 351.191 281.389 352.473 282.97 352.473H380.914C382.495 352.473 383.777 351.191 383.777 349.611C383.777 348.03 382.495 346.748 380.914 346.748Z" fill="#E1DCFF"/>
<path d="M431.023 215.791H397.155C395.574 215.791 394.292 214.511 394.292 212.927C394.292 211.347 395.574 210.063 397.155 210.063H431.023C432.603 210.063 433.886 211.347 433.886 212.927C433.886 214.508 432.603 215.791 431.023 215.791Z" fill="#E1DCFF"/>
<path d="M353.567 227.484H282.97C281.389 227.484 280.107 228.765 280.107 230.346C280.107 231.927 281.389 233.209 282.97 233.209H353.567C355.148 233.209 356.43 231.927 356.43 230.346C356.43 228.765 355.148 227.484 353.567 227.484Z" fill="#F8EDFF"/>
<path d="M353.566 233.515H282.967C281.223 233.515 279.801 232.096 279.801 230.348C279.801 228.601 281.22 227.181 282.967 227.181H353.566C355.31 227.181 356.733 228.601 356.733 230.348C356.733 232.096 355.313 233.515 353.566 233.515ZM282.967 227.79C281.557 227.79 280.407 228.937 280.407 230.351C280.407 231.765 281.557 232.912 282.967 232.912H353.566C354.977 232.912 356.126 231.765 356.126 230.351C356.126 228.937 354.977 227.79 353.566 227.79H282.967Z" fill="#F8EDFF"/>
<path d="M353.567 296.303H282.97C281.389 296.303 280.107 297.585 280.107 299.166C280.107 300.747 281.389 302.028 282.97 302.028H353.567C355.148 302.028 356.43 300.747 356.43 299.166C356.43 297.585 355.148 296.303 353.567 296.303Z" fill="#F8EDFF"/>
<path d="M353.566 302.335H282.967C281.223 302.335 279.801 300.915 279.801 299.167C279.801 297.42 281.22 296 282.967 296H353.566C355.31 296 356.733 297.42 356.733 299.167C356.733 300.915 355.313 302.335 353.566 302.335ZM282.967 296.61C281.557 296.61 280.407 297.757 280.407 299.17C280.407 300.584 281.557 301.731 282.967 301.731H353.566C354.977 301.731 356.126 300.584 356.126 299.17C356.126 297.757 354.977 296.61 353.566 296.61H282.967Z" fill="#F8EDFF"/>
<path d="M353.567 160.622H282.97C281.389 160.622 280.107 161.903 280.107 163.484C280.107 165.065 281.389 166.347 282.97 166.347H353.567C355.148 166.347 356.43 165.065 356.43 163.484C356.43 161.903 355.148 160.622 353.567 160.622Z" fill="#F8EDFF"/>
<path d="M353.566 166.653H282.967C281.223 166.653 279.801 165.233 279.801 163.486C279.801 161.738 281.22 160.318 282.967 160.318H353.566C355.31 160.318 356.733 161.738 356.733 163.486C356.733 165.233 355.313 166.653 353.566 166.653ZM282.967 160.928C281.557 160.928 280.407 162.075 280.407 163.489C280.407 164.903 281.557 166.049 282.967 166.049H353.566C354.977 166.049 356.126 164.903 356.126 163.489C356.126 162.075 354.977 160.928 353.566 160.928H282.967Z" fill="#F8EDFF"/>
<path d="M403.673 227.484H369.808C368.227 227.484 366.945 228.766 366.945 230.347C366.945 231.928 368.227 233.209 369.808 233.209H403.673C405.255 233.209 406.536 231.928 406.536 230.347C406.536 228.766 405.255 227.484 403.673 227.484Z" fill="#E1DCFF"/>
<path d="M403.673 296.304H369.808C368.227 296.304 366.945 297.585 366.945 299.166C366.945 300.747 368.227 302.029 369.808 302.029H403.673C405.255 302.029 406.536 300.747 406.536 299.166C406.536 297.585 405.255 296.304 403.673 296.304Z" fill="#E1DCFF"/>
<path d="M448.83 227.484H414.965C413.384 227.484 412.102 228.765 412.102 230.346C412.102 231.927 413.384 233.209 414.965 233.209H448.83C450.411 233.209 451.693 231.927 451.693 230.346C451.693 228.765 450.411 227.484 448.83 227.484Z" fill="#F8EDFF"/>
<path d="M448.83 233.515H414.962C413.218 233.515 411.795 232.096 411.795 230.348C411.795 228.601 413.215 227.181 414.962 227.181H448.83C450.574 227.181 451.996 228.601 451.996 230.348C451.996 232.096 450.577 233.515 448.83 233.515ZM414.962 227.79C413.551 227.79 412.402 228.937 412.402 230.351C412.402 231.765 413.551 232.912 414.962 232.912H448.83C450.24 232.912 451.39 231.765 451.39 230.351C451.39 228.937 450.24 227.79 448.83 227.79H414.962Z" fill="#F8EDFF"/>
<path d="M448.83 296.303H414.965C413.384 296.303 412.102 297.585 412.102 299.166C412.102 300.747 413.384 302.028 414.965 302.028H448.83C450.411 302.028 451.693 300.747 451.693 299.166C451.693 297.585 450.411 296.303 448.83 296.303Z" fill="#F8EDFF"/>
<path d="M448.83 302.335H414.962C413.218 302.335 411.795 300.915 411.795 299.167C411.795 297.42 413.215 296 414.962 296H448.83C450.574 296 451.996 297.42 451.996 299.167C451.996 300.915 450.577 302.335 448.83 302.335ZM414.962 296.61C413.551 296.61 412.402 297.757 412.402 299.17C412.402 300.584 413.551 301.731 414.962 301.731H448.83C450.24 301.731 451.39 300.584 451.39 299.17C451.39 297.757 450.24 296.61 448.83 296.61H414.962Z" fill="#F8EDFF"/>
</g>
<g opacity="0.8">
<path d="M190.387 291.59H119.788C118.208 291.59 116.925 290.307 116.925 288.726C116.925 287.146 118.208 285.862 119.788 285.862H190.387C191.967 285.862 193.25 287.146 193.25 288.726C193.25 290.307 191.967 291.59 190.387 291.59Z" fill="#E1DCFF"/>
<path d="M190.387 224.728H119.788C118.208 224.728 116.925 223.445 116.925 221.864C116.925 220.283 118.208 219 119.788 219H190.387C191.967 219 193.25 220.283 193.25 221.864C193.25 223.445 191.967 224.728 190.387 224.728Z" fill="#E1DCFF"/>
<path d="M263.467 291.59H229.599C228.019 291.59 226.736 290.307 226.736 288.726C226.736 287.146 228.019 285.862 229.599 285.862H263.467C265.047 285.862 266.33 287.146 266.33 288.726C266.33 290.307 265.047 291.59 263.467 291.59Z" fill="#F8EDFF"/>
<path d="M263.468 291.894H229.599C227.856 291.894 226.433 290.474 226.433 288.726C226.433 286.979 227.852 285.559 229.599 285.559H263.468C265.211 285.559 266.634 286.979 266.634 288.726C266.634 290.474 265.215 291.894 263.468 291.894ZM229.599 286.169C228.189 286.169 227.04 287.316 227.04 288.73C227.04 290.143 228.189 291.29 229.599 291.29H263.468C264.878 291.29 266.027 290.143 266.027 288.73C266.027 287.316 264.878 286.169 263.468 286.169H229.599Z" fill="#F8EDFF"/>
<path d="M190.387 308.768H119.788C118.208 308.768 116.925 307.485 116.925 305.904C116.925 304.323 118.208 303.04 119.788 303.04H190.387C191.967 303.04 193.25 304.323 193.25 305.904C193.25 307.485 191.967 308.768 190.387 308.768Z" fill="#E1DCFF"/>
<path d="M190.387 241.906H119.788C118.208 241.906 116.925 240.622 116.925 239.042C116.925 237.461 118.208 236.178 119.788 236.178H190.387C191.967 236.178 193.25 237.461 193.25 239.042C193.25 240.622 191.967 241.906 190.387 241.906Z" fill="#E1DCFF"/>
<path d="M240.494 308.768H206.626C205.046 308.768 203.763 307.485 203.763 305.904C203.763 304.323 205.046 303.04 206.626 303.04H240.494C242.074 303.04 243.357 304.323 243.357 305.904C243.357 307.485 242.074 308.768 240.494 308.768Z" fill="#F8EDFF"/>
<path d="M240.494 309.072H206.626C204.882 309.072 203.46 307.652 203.46 305.904C203.46 304.157 204.879 302.737 206.626 302.737H240.494C242.238 302.737 243.661 304.157 243.661 305.904C243.661 307.652 242.241 309.072 240.494 309.072ZM206.626 303.347C205.216 303.347 204.067 304.493 204.067 305.907C204.067 307.321 205.213 308.468 206.626 308.468H240.494C241.905 308.468 243.054 307.321 243.054 305.907C243.054 304.493 241.908 303.347 240.494 303.347H206.626Z" fill="#F8EDFF"/>
<path d="M265.616 308.768H254.961C253.381 308.768 252.098 307.485 252.098 305.904C252.098 304.323 253.378 303.04 254.961 303.04H265.616C267.196 303.04 268.479 304.323 268.479 305.904C268.479 307.485 267.196 308.768 265.616 308.768Z" fill="#F8EDFF"/>
<path d="M265.616 309.072H254.962C253.218 309.072 251.795 307.652 251.795 305.904C251.795 304.157 253.215 302.737 254.962 302.737H265.616C267.36 302.737 268.783 304.157 268.783 305.904C268.783 307.652 267.363 309.072 265.616 309.072ZM254.962 303.347C253.551 303.347 252.402 304.493 252.402 305.907C252.402 307.321 253.551 308.468 254.962 308.468H265.616C267.027 308.468 268.176 307.321 268.176 305.907C268.176 304.493 267.03 303.347 265.616 303.347H254.962Z" fill="#F8EDFF"/>
<path d="M156.835 361.895H122.967C121.386 361.895 120.104 360.614 120.104 359.031C120.104 357.45 121.386 356.167 122.967 356.167H156.835C158.415 356.167 159.698 357.447 159.698 359.031C159.698 360.611 158.415 361.895 156.835 361.895Z" fill="#F8EDFF"/>
<path d="M156.835 362.198H122.967C121.223 362.198 119.801 360.778 119.801 359.031C119.801 357.283 121.22 355.863 122.967 355.863H156.835C158.579 355.863 160.002 357.283 160.002 359.031C160.002 360.778 158.582 362.198 156.835 362.198ZM122.967 356.473C121.557 356.473 120.407 357.62 120.407 359.034C120.407 360.447 121.557 361.594 122.967 361.594H156.835C158.246 361.594 159.395 360.447 159.395 359.034C159.395 357.62 158.246 356.473 156.835 356.473H122.967Z" fill="#F8EDFF"/>
<path d="M263.622 361.894H189.758C188.571 361.894 187.606 360.614 187.606 359.03C187.606 357.449 188.571 356.166 189.758 356.166H263.622C264.81 356.166 265.774 357.446 265.774 359.03C265.774 360.611 264.81 361.894 263.622 361.894Z" fill="#F8EDFF"/>
<path d="M263.62 362.198H189.756C188.445 362.198 187.376 360.778 187.376 359.031C187.376 357.283 188.443 355.863 189.756 355.863H263.62C264.93 355.863 265.999 357.283 265.999 359.031C265.999 360.778 264.933 362.198 263.62 362.198ZM189.756 356.473C188.696 356.473 187.832 357.62 187.832 359.034C187.832 360.447 188.693 361.594 189.756 361.594H263.62C264.68 361.594 265.543 360.447 265.543 359.034C265.543 357.62 264.68 356.473 263.62 356.473H189.756Z" fill="#F8EDFF"/>
<path d="M188.876 372.659H155.01C153.429 372.659 152.147 373.941 152.147 375.522C152.147 377.103 153.429 378.384 155.01 378.384H188.876C190.457 378.384 191.739 377.103 191.739 375.522C191.739 373.941 190.457 372.659 188.876 372.659Z" fill="#E1DCFF"/>
<path d="M220.918 325.791H150.319C148.738 325.791 147.456 324.511 147.456 322.927C147.456 321.347 148.738 320.063 150.319 320.063H220.918C222.498 320.063 223.781 321.347 223.781 322.927C223.781 324.508 222.501 325.791 220.918 325.791Z" fill="#F8EDFF"/>
<path d="M220.915 326.095H150.315C148.571 326.095 147.149 324.675 147.149 322.928C147.149 321.18 148.568 319.76 150.315 319.76H220.915C222.658 319.76 224.081 321.18 224.081 322.928C224.081 324.675 222.661 326.095 220.915 326.095ZM150.315 320.37C148.905 320.37 147.756 321.517 147.756 322.931C147.756 324.344 148.902 325.491 150.315 325.491H220.915C222.325 325.491 223.474 324.344 223.474 322.931C223.474 321.517 222.328 320.37 220.915 320.37H150.315Z" fill="#F8EDFF"/>
<path d="M220.918 258.929H150.319C148.738 258.929 147.456 257.648 147.456 256.065C147.456 254.484 148.738 253.201 150.319 253.201H220.918C222.498 253.201 223.781 254.484 223.781 256.065C223.781 257.645 222.501 258.929 220.918 258.929Z" fill="#F8EDFF"/>
<path d="M220.915 259.232H150.315C148.571 259.232 147.149 257.812 147.149 256.065C147.149 254.317 148.568 252.897 150.315 252.897H220.915C222.658 252.897 224.081 254.317 224.081 256.065C224.081 257.812 222.661 259.232 220.915 259.232ZM150.315 253.507C148.905 253.507 147.756 254.654 147.756 256.068C147.756 257.482 148.902 258.628 150.315 258.628H220.915C222.325 258.628 223.474 257.482 223.474 256.068C223.474 254.654 222.328 253.507 220.915 253.507H150.315Z" fill="#F8EDFF"/>
<path d="M248.744 370.902H223.294C222.105 370.902 221.142 372.184 221.142 373.765C221.142 375.346 222.105 376.627 223.294 376.627H248.744C249.932 376.627 250.896 375.346 250.896 373.765C250.896 372.184 249.932 370.902 248.744 370.902Z" fill="#F8EDFF"/>
<path d="M248.744 376.93H223.291C221.981 376.93 220.912 375.511 220.912 373.763C220.912 372.016 221.978 370.596 223.291 370.596H248.744C250.054 370.596 251.123 372.016 251.123 373.763C251.123 375.511 250.057 376.93 248.744 376.93ZM223.291 371.206C222.231 371.206 221.367 372.352 221.367 373.766C221.367 375.18 222.229 376.327 223.291 376.327H248.744C249.804 376.327 250.667 375.18 250.667 373.766C250.667 372.352 249.804 371.206 248.744 371.206H223.291Z" fill="#F8EDFF"/>
<path d="M249.903 326H225.097C223.94 326 223 324.659 223 323C223 321.344 223.94 320 225.097 320H249.903C251.06 320 252 321.344 252 323C252 324.656 251.06 326 249.903 326Z" fill="#E1DCFF"/>
<path d="M193.567 337.484H122.97C121.389 337.484 120.107 338.765 120.107 340.346C120.107 341.927 121.389 343.209 122.97 343.209H193.567C195.148 343.209 196.43 341.927 196.43 340.346C196.43 338.765 195.148 337.484 193.567 337.484Z" fill="#F8EDFF"/>
<path d="M193.566 343.515H122.967C121.223 343.515 119.801 342.096 119.801 340.348C119.801 338.601 121.22 337.181 122.967 337.181H193.566C195.31 337.181 196.733 338.601 196.733 340.348C196.733 342.096 195.313 343.515 193.566 343.515ZM122.967 337.79C121.557 337.79 120.407 338.937 120.407 340.351C120.407 341.765 121.557 342.912 122.967 342.912H193.566C194.977 342.912 196.126 341.765 196.126 340.351C196.126 338.937 194.977 337.79 193.566 337.79H122.967Z" fill="#F8EDFF"/>
<path d="M193.567 270.622H122.97C121.389 270.622 120.107 271.903 120.107 273.484C120.107 275.065 121.389 276.347 122.97 276.347H193.567C195.148 276.347 196.43 275.065 196.43 273.484C196.43 271.903 195.148 270.622 193.567 270.622Z" fill="#F8EDFF"/>
<path d="M193.566 276.653H122.967C121.223 276.653 119.801 275.233 119.801 273.486C119.801 271.738 121.22 270.318 122.967 270.318H193.566C195.31 270.318 196.733 271.738 196.733 273.486C196.733 275.233 195.313 276.653 193.566 276.653ZM122.967 270.928C121.557 270.928 120.407 272.075 120.407 273.489C120.407 274.903 121.557 276.049 122.967 276.049H193.566C194.977 276.049 196.126 274.903 196.126 273.489C196.126 272.075 194.977 270.928 193.566 270.928H122.967Z" fill="#F8EDFF"/>
<path d="M243.673 337.484H209.808C208.227 337.484 206.945 338.765 206.945 340.346C206.945 341.927 208.227 343.209 209.808 343.209H243.673C245.255 343.209 246.536 341.927 246.536 340.346C246.536 338.765 245.255 337.484 243.673 337.484Z" fill="#E1DCFF"/>
<path d="M263.621 337.484H238.171C236.982 337.484 236.019 338.766 236.019 340.347C236.019 341.928 236.982 343.209 238.171 343.209H263.621C264.809 343.209 265.773 341.928 265.773 340.347C265.773 338.766 264.809 337.484 263.621 337.484Z" fill="#F8EDFF"/>
<path d="M263.621 343.515H238.168C236.858 343.515 235.789 342.096 235.789 340.348C235.789 338.601 236.855 337.181 238.168 337.181H263.621C264.931 337.181 266 338.601 266 340.348C266 342.096 264.934 343.515 263.621 343.515ZM238.168 337.79C237.108 337.79 236.244 338.937 236.244 340.351C236.244 341.765 237.108 342.912 238.168 342.912H263.621C264.681 342.912 265.544 341.765 265.544 340.351C265.544 338.937 264.681 337.79 263.621 337.79H238.168Z" fill="#F8EDFF"/>
</g>
<path d="M233.244 268.457H84.9116V347.957H233.244V268.457Z" fill="#F4F5F7"/>
<path d="M233.244 348.383H84.9112C84.6794 348.383 84.4897 348.193 84.4897 347.961V268.461C84.4897 268.229 84.6794 268.04 84.9112 268.04H233.244C233.476 268.04 233.666 268.229 233.666 268.461V347.961C233.666 348.193 233.476 348.383 233.244 348.383ZM85.3327 347.539H232.823V268.883H85.3327V347.539Z" fill="#DFE1E6"/>
<path d="M233.244 268.457H84.9116V284.5H233.244V268.457Z" fill="#C1C7D0"/>
<path d="M111.494 314.93C111.343 314.93 111.195 314.846 111.119 314.702C111.014 314.496 111.094 314.243 111.3 314.133L136.856 300.991C137.062 300.885 137.315 300.965 137.425 301.172C137.53 301.379 137.45 301.632 137.243 301.741L111.688 314.884C111.625 314.917 111.562 314.93 111.494 314.93Z" fill="#DFE1E6"/>
<path d="M137.05 328.072C136.986 328.072 136.919 328.055 136.856 328.026L111.3 314.883C111.094 314.778 111.014 314.525 111.119 314.314C111.224 314.107 111.477 314.027 111.688 314.133L137.243 327.275C137.45 327.381 137.53 327.638 137.425 327.844C137.349 327.992 137.201 328.072 137.05 328.072Z" fill="#DFE1E6"/>
<path d="M206.659 314.93C206.596 314.93 206.528 314.913 206.465 314.884L180.91 301.741C180.703 301.636 180.623 301.383 180.728 301.172C180.834 300.965 181.087 300.881 181.297 300.991L206.853 314.133C207.059 314.238 207.139 314.496 207.034 314.702C206.958 314.85 206.811 314.93 206.659 314.93Z" fill="#DFE1E6"/>
<path d="M181.104 328.073C180.952 328.073 180.804 327.988 180.728 327.845C180.623 327.638 180.703 327.385 180.91 327.276L206.465 314.133C206.672 314.028 206.924 314.108 207.034 314.315C207.139 314.521 207.059 314.774 206.853 314.884L181.297 328.026C181.234 328.06 181.171 328.073 181.104 328.073Z" fill="#DFE1E6"/>
<path d="M148.484 329.928C148.421 329.928 148.358 329.915 148.299 329.885C148.088 329.784 148.004 329.531 148.109 329.32L162.002 301.185C162.103 300.978 162.36 300.889 162.567 300.995C162.777 301.096 162.862 301.349 162.756 301.56L148.864 329.696C148.792 329.843 148.64 329.932 148.484 329.932V329.928Z" fill="#DFE1E6"/>
<path d="M158.062 329.928C157.998 329.928 157.935 329.915 157.876 329.885C157.665 329.784 157.581 329.531 157.686 329.32L171.579 301.185C171.68 300.978 171.933 300.889 172.144 300.995C172.355 301.096 172.439 301.349 172.333 301.56L158.441 329.696C158.369 329.843 158.218 329.932 158.062 329.932V329.928Z" fill="#DFE1E6"/>
<path d="M233.244 284.926H84.9112C84.6794 284.926 84.4897 284.737 84.4897 284.505C84.4897 284.273 84.6794 284.083 84.9112 284.083H233.244C233.476 284.083 233.666 284.273 233.666 284.505C233.666 284.737 233.476 284.926 233.244 284.926Z" fill="#DFE1E6"/>
<g opacity="0.2">
<path d="M141.567 121.774C143.583 113.229 138.293 104.668 129.752 102.651C121.21 100.635 112.652 105.927 110.636 114.471C108.62 123.015 113.91 131.576 122.451 133.593C130.993 135.609 139.551 130.318 141.567 121.774Z" fill="url(#paint0_linear_1753_30060)"/>
<path d="M228.99 116.232H155.464C153.964 116.232 152.746 115.014 152.746 113.513C152.746 112.012 153.964 110.793 155.464 110.793H228.99C230.49 110.793 231.709 112.012 231.709 113.513C231.709 115.014 230.49 116.232 228.99 116.232Z" fill="url(#paint1_linear_1753_30060)"/>
<path d="M189.508 126.967H155.464C153.964 126.967 152.746 125.748 152.746 124.247C152.746 122.746 153.964 121.528 155.464 121.528H189.508C191.009 121.528 192.227 122.746 192.227 124.247C192.227 125.748 191.009 126.967 189.508 126.967Z" fill="url(#paint2_linear_1753_30060)"/>
<path d="M219.867 185.525C228.529 184.119 234.412 175.954 233.006 167.288C231.599 158.622 223.437 152.738 214.774 154.145C206.112 155.551 200.229 163.716 201.635 172.382C203.042 181.047 211.204 186.932 219.867 185.525Z" fill="url(#paint3_linear_1753_30060)"/>
<path d="M114.478 167.98H188.004C189.504 167.98 190.722 166.761 190.722 165.26C190.722 163.759 189.504 162.541 188.004 162.541H114.478C112.977 162.541 111.759 163.759 111.759 165.26C111.759 166.761 112.977 167.98 114.478 167.98Z" fill="url(#paint4_linear_1753_30060)"/>
<path d="M153.96 178.719H188.004C189.506 178.719 190.723 177.501 190.723 175.999C190.723 174.497 189.506 173.28 188.004 173.28H153.96C152.459 173.28 151.242 174.497 151.242 175.999C151.242 177.501 152.459 178.719 153.96 178.719Z" fill="url(#paint5_linear_1753_30060)"/>
<path d="M244.396 144.545H93.6481C93.4162 144.545 93.2266 144.355 93.2266 144.123C93.2266 143.891 93.4162 143.702 93.6481 143.702H244.396C244.628 143.702 244.818 143.891 244.818 144.123C244.818 144.355 244.628 144.545 244.396 144.545Z" fill="url(#paint6_linear_1753_30060)"/>
</g>
<path d="M8.58924 262.553H243.402C247.929 262.553 251.599 266.223 251.599 270.75V382.41C251.599 386.938 247.929 390.608 243.402 390.608H8.58924C4.06209 390.608 0.392117 386.938 0.392117 382.41V270.75C0.392117 266.223 4.06209 262.553 8.58924 262.553Z" fill="white" stroke="#C1C7D0" stroke-width="0.784235"/>
<rect x="234" y="333.862" width="217.039" height="16.805" rx="8.40252" transform="rotate(-180 234 333.862)" fill="url(#paint7_linear_1753_30060)"/>
<rect x="49.0522" y="333.862" width="32.0913" height="16.805" rx="8.40252" transform="rotate(-180 49.0522 333.862)" fill="#FF463A"/>
<rect x="64.2539" y="333.862" width="37.1584" height="16.805" rx="8.40252" transform="rotate(-180 64.2539 333.862)" fill="#FFA100"/>
<path d="M65.5633 291.304L62.6143 301.253H60.7676L58.6776 293.723L56.4587 301.253L54.6263 301.267L51.8062 291.304H53.5383L55.5998 299.406L57.833 291.304H59.6653L61.7411 299.363L63.8168 291.304H65.5633ZM73.7091 297.116C73.7091 297.412 73.69 297.679 73.6518 297.917H67.625C67.6727 298.547 67.9066 299.053 68.3265 299.435C68.7464 299.817 69.2618 300.007 69.8725 300.007C70.7506 300.007 71.3709 299.64 71.7335 298.905H73.4943C73.2557 299.631 72.8215 300.227 72.1916 300.695C71.5713 301.153 70.7983 301.382 69.8725 301.382C69.1186 301.382 68.441 301.215 67.8398 300.881C67.2481 300.537 66.7804 300.06 66.4368 299.449C66.1028 298.829 65.9358 298.113 65.9358 297.302C65.9358 296.491 66.098 295.78 66.4225 295.169C66.7566 294.549 67.2194 294.071 67.8111 293.737C68.4124 293.403 69.0995 293.236 69.8725 293.236C70.6169 293.236 71.2802 293.399 71.8624 293.723C72.4445 294.048 72.8979 294.506 73.2223 295.097C73.5468 295.679 73.7091 296.352 73.7091 297.116ZM72.0055 296.6C71.996 295.999 71.7813 295.517 71.3613 295.155C70.9414 294.792 70.4213 294.611 69.801 294.611C69.2379 294.611 68.7559 294.792 68.3551 295.155C67.9543 295.508 67.7157 295.99 67.6393 296.6H72.0055ZM76.5176 294.539C76.7943 294.157 77.1713 293.847 77.6485 293.609C78.1352 293.36 78.6744 293.236 79.2661 293.236C79.9628 293.236 80.5927 293.403 81.1558 293.737C81.7188 294.071 82.1626 294.549 82.4871 295.169C82.8116 295.78 82.9738 296.481 82.9738 297.273C82.9738 298.065 82.8116 298.776 82.4871 299.406C82.1626 300.027 81.7141 300.513 81.1414 300.866C80.5784 301.21 79.9533 301.382 79.2661 301.382C78.6553 301.382 78.1114 301.262 77.6342 301.024C77.1665 300.785 76.7943 300.48 76.5176 300.108V301.253H74.8856V290.66H76.5176V294.539ZM81.3132 297.273C81.3132 296.729 81.1987 296.262 80.9697 295.87C80.7502 295.47 80.4543 295.169 80.0821 294.968C79.7194 294.759 79.3282 294.654 78.9082 294.654C78.4979 294.654 78.1066 294.759 77.7344 294.968C77.3717 295.178 77.0759 295.484 76.8468 295.885C76.6273 296.285 76.5176 296.758 76.5176 297.302C76.5176 297.846 76.6273 298.323 76.8468 298.733C77.0759 299.134 77.3717 299.44 77.7344 299.65C78.1066 299.86 78.4979 299.965 78.9082 299.965C79.3282 299.965 79.7194 299.86 80.0821 299.65C80.4543 299.43 80.7502 299.115 80.9697 298.705C81.1987 298.294 81.3132 297.817 81.3132 297.273ZM87.0213 301.382C86.4009 301.382 85.8426 301.272 85.3464 301.053C84.8596 300.823 84.4731 300.518 84.1868 300.136C83.9005 299.745 83.7478 299.311 83.7287 298.834H85.4179C85.4466 299.168 85.604 299.449 85.8904 299.678C86.1862 299.898 86.5536 300.007 86.9926 300.007C87.4507 300.007 87.8038 299.922 88.052 299.75C88.3097 299.568 88.4385 299.339 88.4385 299.063C88.4385 298.767 88.2953 298.547 88.009 298.404C87.7323 298.261 87.2885 298.104 86.6777 297.932C86.086 297.77 85.604 297.612 85.2318 297.459C84.8596 297.307 84.5352 297.073 84.2584 296.758C83.9912 296.443 83.8576 296.028 83.8576 295.512C83.8576 295.093 83.9816 294.711 84.2298 294.367C84.4779 294.014 84.831 293.737 85.2891 293.537C85.7567 293.337 86.2912 293.236 86.8924 293.236C87.7895 293.236 88.5101 293.465 89.0541 293.923C89.6076 294.372 89.9034 294.988 89.9416 295.77H88.3097C88.281 295.417 88.1379 295.135 87.8802 294.926C87.6225 294.716 87.2742 294.611 86.8352 294.611C86.4057 294.611 86.0765 294.692 85.8474 294.854C85.6184 295.016 85.5038 295.231 85.5038 295.498C85.5038 295.708 85.5802 295.885 85.7329 296.028C85.8856 296.171 86.0717 296.285 86.2912 296.371C86.5107 296.448 86.8352 296.548 87.2646 296.672C87.8372 296.825 88.3049 296.982 88.6675 297.144C89.0397 297.297 89.3595 297.526 89.6267 297.832C89.8939 298.137 90.0323 298.543 90.0418 299.048C90.0418 299.497 89.9178 299.898 89.6696 300.251C89.4215 300.604 89.0684 300.881 88.6103 301.081C88.1617 301.282 87.6321 301.382 87.0213 301.382ZM92.206 292.32C91.9102 292.32 91.662 292.22 91.4616 292.019C91.2612 291.819 91.161 291.571 91.161 291.275C91.161 290.979 91.2612 290.731 91.4616 290.531C91.662 290.33 91.9102 290.23 92.206 290.23C92.4923 290.23 92.7357 290.33 92.9361 290.531C93.1365 290.731 93.2367 290.979 93.2367 291.275C93.2367 291.571 93.1365 291.819 92.9361 292.019C92.7357 292.22 92.4923 292.32 92.206 292.32ZM93.0077 293.365V301.253H91.3757V293.365H93.0077ZM96.6248 294.696V299.063C96.6248 299.359 96.6916 299.573 96.8252 299.707C96.9683 299.831 97.2069 299.893 97.541 299.893H98.543V301.253H97.2547C96.5198 301.253 95.9567 301.081 95.5654 300.738C95.1742 300.394 94.9785 299.836 94.9785 299.063V294.696H94.048V293.365H94.9785V291.404H96.6248V293.365H98.543V294.696H96.6248ZM106.847 297.116C106.847 297.412 106.828 297.679 106.79 297.917H100.763C100.811 298.547 101.044 299.053 101.464 299.435C101.884 299.817 102.4 300.007 103.01 300.007C103.888 300.007 104.509 299.64 104.871 298.905H106.632C106.394 299.631 105.959 300.227 105.33 300.695C104.709 301.153 103.936 301.382 103.01 301.382C102.257 301.382 101.579 301.215 100.978 300.881C100.386 300.537 99.9183 300.06 99.5748 299.449C99.2407 298.829 99.0737 298.113 99.0737 297.302C99.0737 296.491 99.236 295.78 99.5604 295.169C99.8945 294.549 100.357 294.071 100.949 293.737C101.55 293.403 102.237 293.236 103.01 293.236C103.755 293.236 104.418 293.399 105 293.723C105.582 294.048 106.036 294.506 106.36 295.097C106.685 295.679 106.847 296.352 106.847 297.116ZM105.143 296.6C105.134 295.999 104.919 295.517 104.499 295.155C104.079 294.792 103.559 294.611 102.939 294.611C102.376 294.611 101.894 294.792 101.493 295.155C101.092 295.508 100.854 295.99 100.777 296.6H105.143ZM118.27 294.267C118.27 294.773 118.151 295.25 117.912 295.699C117.674 296.147 117.292 296.515 116.767 296.801C116.242 297.078 115.569 297.216 114.748 297.216H112.945V301.253H111.313V291.304H114.748C115.512 291.304 116.156 291.437 116.681 291.705C117.215 291.962 117.611 292.315 117.869 292.764C118.136 293.212 118.27 293.713 118.27 294.267ZM114.748 295.885C115.369 295.885 115.832 295.746 116.137 295.47C116.442 295.183 116.595 294.782 116.595 294.267C116.595 293.179 115.98 292.635 114.748 292.635H112.945V295.885H114.748ZM126.626 297.116C126.626 297.412 126.607 297.679 126.569 297.917H120.542C120.59 298.547 120.824 299.053 121.244 299.435C121.664 299.817 122.179 300.007 122.79 300.007C123.668 300.007 124.288 299.64 124.651 298.905H126.412C126.173 299.631 125.739 300.227 125.109 300.695C124.489 301.153 123.715 301.382 122.79 301.382C122.036 301.382 121.358 301.215 120.757 300.881C120.165 300.537 119.698 300.06 119.354 299.449C119.02 298.829 118.853 298.113 118.853 297.302C118.853 296.491 119.015 295.78 119.34 295.169C119.674 294.549 120.137 294.071 120.728 293.737C121.33 293.403 122.017 293.236 122.79 293.236C123.534 293.236 124.197 293.399 124.78 293.723C125.362 294.048 125.815 294.506 126.14 295.097C126.464 295.679 126.626 296.352 126.626 297.116ZM124.923 296.6C124.913 295.999 124.698 295.517 124.279 295.155C123.859 294.792 123.339 294.611 122.718 294.611C122.155 294.611 121.673 294.792 121.272 295.155C120.871 295.508 120.633 295.99 120.557 296.6H124.923ZM129.435 294.51C129.673 294.11 129.988 293.799 130.38 293.58C130.78 293.351 131.253 293.236 131.797 293.236V294.926H131.382C130.742 294.926 130.256 295.088 129.921 295.412C129.597 295.737 129.435 296.3 129.435 297.101V301.253H127.803V293.365H129.435V294.51ZM136.174 294.696H134.714V301.253H133.068V294.696H132.137V293.365H133.068V292.807C133.068 291.9 133.306 291.242 133.784 290.831C134.27 290.411 135.029 290.201 136.06 290.201V291.561C135.564 291.561 135.215 291.657 135.015 291.848C134.814 292.029 134.714 292.349 134.714 292.807V293.365H136.174V294.696ZM140.613 301.382C139.868 301.382 139.195 301.215 138.594 300.881C137.993 300.537 137.52 300.06 137.177 299.449C136.833 298.829 136.661 298.113 136.661 297.302C136.661 296.5 136.838 295.789 137.191 295.169C137.544 294.549 138.026 294.071 138.637 293.737C139.248 293.403 139.93 293.236 140.684 293.236C141.438 293.236 142.12 293.403 142.731 293.737C143.342 294.071 143.824 294.549 144.177 295.169C144.53 295.789 144.707 296.5 144.707 297.302C144.707 298.104 144.525 298.815 144.163 299.435C143.8 300.055 143.304 300.537 142.674 300.881C142.054 301.215 141.366 301.382 140.613 301.382ZM140.613 299.965C141.032 299.965 141.424 299.864 141.786 299.664C142.159 299.464 142.459 299.163 142.688 298.762C142.917 298.361 143.032 297.874 143.032 297.302C143.032 296.729 142.922 296.247 142.703 295.856C142.483 295.455 142.192 295.155 141.829 294.954C141.467 294.754 141.075 294.654 140.655 294.654C140.236 294.654 139.844 294.754 139.482 294.954C139.129 295.155 138.847 295.455 138.637 295.856C138.427 296.247 138.322 296.729 138.322 297.302C138.322 298.151 138.537 298.81 138.966 299.277C139.405 299.735 139.954 299.965 140.613 299.965ZM147.523 294.51C147.761 294.11 148.076 293.799 148.467 293.58C148.868 293.351 149.341 293.236 149.885 293.236V294.926H149.469C148.83 294.926 148.343 295.088 148.009 295.412C147.685 295.737 147.523 296.3 147.523 297.101V301.253H145.891V293.365H147.523V294.51ZM160.504 293.236C161.124 293.236 161.677 293.365 162.164 293.623C162.66 293.88 163.047 294.262 163.324 294.768C163.61 295.274 163.753 295.885 163.753 296.6V301.253H162.136V296.844C162.136 296.138 161.959 295.598 161.606 295.226C161.253 294.844 160.771 294.654 160.16 294.654C159.549 294.654 159.062 294.844 158.7 295.226C158.347 295.598 158.17 296.138 158.17 296.844V301.253H156.553V296.844C156.553 296.138 156.376 295.598 156.023 295.226C155.67 294.844 155.188 294.654 154.577 294.654C153.966 294.654 153.479 294.844 153.117 295.226C152.764 295.598 152.587 296.138 152.587 296.844V301.253H150.955V293.365H152.587V294.267C152.854 293.943 153.193 293.69 153.604 293.508C154.014 293.327 154.453 293.236 154.921 293.236C155.55 293.236 156.114 293.37 156.61 293.637C157.106 293.904 157.488 294.291 157.755 294.797C157.994 294.32 158.366 293.943 158.872 293.666C159.377 293.379 159.921 293.236 160.504 293.236ZM164.856 297.273C164.856 296.481 165.019 295.78 165.343 295.169C165.677 294.558 166.126 294.086 166.689 293.752C167.261 293.408 167.891 293.236 168.578 293.236C169.199 293.236 169.738 293.36 170.196 293.609C170.664 293.847 171.036 294.148 171.313 294.51V293.365H172.959V301.253H171.313V300.079C171.036 300.451 170.659 300.761 170.182 301.01C169.704 301.258 169.16 301.382 168.55 301.382C167.872 301.382 167.252 301.21 166.689 300.866C166.126 300.513 165.677 300.027 165.343 299.406C165.019 298.776 164.856 298.065 164.856 297.273ZM171.313 297.302C171.313 296.758 171.198 296.285 170.969 295.885C170.75 295.484 170.458 295.178 170.096 294.968C169.733 294.759 169.342 294.654 168.922 294.654C168.502 294.654 168.111 294.759 167.748 294.968C167.385 295.169 167.09 295.47 166.86 295.87C166.641 296.262 166.531 296.729 166.531 297.273C166.531 297.817 166.641 298.294 166.86 298.705C167.09 299.115 167.385 299.43 167.748 299.65C168.12 299.86 168.512 299.965 168.922 299.965C169.342 299.965 169.733 299.86 170.096 299.65C170.458 299.44 170.75 299.134 170.969 298.733C171.198 298.323 171.313 297.846 171.313 297.302ZM178.653 293.236C179.273 293.236 179.826 293.365 180.313 293.623C180.809 293.88 181.196 294.262 181.473 294.768C181.749 295.274 181.888 295.885 181.888 296.6V301.253H180.27V296.844C180.27 296.138 180.094 295.598 179.741 295.226C179.387 294.844 178.905 294.654 178.295 294.654C177.684 294.654 177.197 294.844 176.835 295.226C176.481 295.598 176.305 296.138 176.305 296.844V301.253H174.673V293.365H176.305V294.267C176.572 293.943 176.911 293.69 177.321 293.508C177.741 293.327 178.185 293.236 178.653 293.236ZM182.996 297.302C182.996 296.491 183.158 295.78 183.483 295.169C183.817 294.549 184.275 294.071 184.857 293.737C185.439 293.403 186.107 293.236 186.861 293.236C187.816 293.236 188.603 293.465 189.223 293.923C189.853 294.372 190.278 295.016 190.497 295.856H188.737C188.593 295.465 188.364 295.159 188.049 294.94C187.734 294.72 187.338 294.611 186.861 294.611C186.193 294.611 185.659 294.849 185.258 295.326C184.867 295.794 184.671 296.452 184.671 297.302C184.671 298.151 184.867 298.815 185.258 299.292C185.659 299.769 186.193 300.007 186.861 300.007C187.806 300.007 188.431 299.592 188.737 298.762H190.497C190.268 299.564 189.839 300.203 189.209 300.68C188.579 301.148 187.797 301.382 186.861 301.382C186.107 301.382 185.439 301.215 184.857 300.881C184.275 300.537 183.817 300.06 183.483 299.449C183.158 298.829 182.996 298.113 182.996 297.302ZM198.924 297.116C198.924 297.412 198.904 297.679 198.866 297.917H192.839C192.887 298.547 193.121 299.053 193.541 299.435C193.961 299.817 194.476 300.007 195.087 300.007C195.965 300.007 196.585 299.64 196.948 298.905H198.709C198.47 299.631 198.036 300.227 197.406 300.695C196.786 301.153 196.013 301.382 195.087 301.382C194.333 301.382 193.655 301.215 193.054 300.881C192.463 300.537 191.995 300.06 191.651 299.449C191.317 298.829 191.15 298.113 191.15 297.302C191.15 296.491 191.313 295.78 191.637 295.169C191.971 294.549 192.434 294.071 193.026 293.737C193.627 293.403 194.314 293.236 195.087 293.236C195.831 293.236 196.495 293.399 197.077 293.723C197.659 294.048 198.112 294.506 198.437 295.097C198.761 295.679 198.924 296.352 198.924 297.116ZM197.22 296.6C197.21 295.999 196.996 295.517 196.576 295.155C196.156 294.792 195.636 294.611 195.015 294.611C194.452 294.611 193.97 294.792 193.57 295.155C193.169 295.508 192.93 295.99 192.854 296.6H197.22Z" fill="#5E6C84"/>
<path d="M57.4507 351.8C57.7853 351.86 58.0691 352.036 58.3021 352.329C58.5351 352.622 58.6517 352.954 58.6517 353.324C58.6517 353.641 58.568 353.927 58.4007 354.184C58.2394 354.435 58.0034 354.636 57.6926 354.785C57.3819 354.928 57.0204 355 56.6082 355H54.1165V348.771H56.4916C56.9159 348.771 57.2804 348.843 57.5851 348.986C57.8898 349.129 58.1199 349.324 58.2752 349.569C58.4306 349.808 58.5083 350.076 58.5083 350.375C58.5083 350.734 58.4127 351.033 58.2214 351.272C58.0302 351.511 57.7733 351.687 57.4507 351.8ZM55.1383 351.388H56.402C56.7366 351.388 56.9965 351.313 57.1818 351.164C57.373 351.009 57.4686 350.788 57.4686 350.501C57.4686 350.22 57.373 350.002 57.1818 349.846C56.9965 349.685 56.7366 349.604 56.402 349.604H55.1383V351.388ZM56.5185 354.166C56.8651 354.166 57.137 354.083 57.3341 353.916C57.5313 353.748 57.6299 353.515 57.6299 353.216C57.6299 352.912 57.5253 352.67 57.3162 352.49C57.1071 352.311 56.8292 352.222 56.4827 352.222H55.1383V354.166H56.5185ZM59.1525 352.508C59.1525 352.012 59.2541 351.573 59.4572 351.191C59.6664 350.808 59.9472 350.513 60.2997 350.304C60.6582 350.088 61.0526 349.981 61.4828 349.981C61.8712 349.981 62.2088 350.059 62.4956 350.214C62.7884 350.363 63.0214 350.552 63.1947 350.779V350.062H64.2254V355H63.1947V354.265C63.0214 354.498 62.7854 354.692 62.4866 354.848C62.1879 355.003 61.8473 355.081 61.4649 355.081C61.0407 355.081 60.6523 354.973 60.2997 354.758C59.9472 354.537 59.6664 354.232 59.4572 353.844C59.2541 353.449 59.1525 353.004 59.1525 352.508ZM63.1947 352.526C63.1947 352.186 63.123 351.89 62.9796 351.639C62.8422 351.388 62.6599 351.197 62.4329 351.065C62.2058 350.934 61.9608 350.868 61.6979 350.868C61.435 350.868 61.19 350.934 60.963 351.065C60.7359 351.191 60.5507 351.379 60.4073 351.63C60.2699 351.875 60.2012 352.168 60.2012 352.508C60.2012 352.849 60.2699 353.148 60.4073 353.405C60.5507 353.662 60.7359 353.859 60.963 353.996C61.196 354.128 61.441 354.193 61.6979 354.193C61.9608 354.193 62.2058 354.128 62.4329 353.996C62.6599 353.865 62.8422 353.674 62.9796 353.423C63.123 353.166 63.1947 352.867 63.1947 352.526ZM64.958 352.508C64.958 352.012 65.0595 351.573 65.2627 351.191C65.4718 350.808 65.7526 350.513 66.1052 350.304C66.4637 350.088 66.861 349.981 67.2972 349.981C67.6199 349.981 67.9366 350.053 68.2473 350.196C68.5639 350.333 68.8149 350.519 69.0001 350.752V348.368H70.0308V355H69.0001V354.256C68.8328 354.495 68.5998 354.692 68.301 354.848C68.0083 355.003 67.6707 355.081 67.2883 355.081C66.858 355.081 66.4637 354.973 66.1052 354.758C65.7526 354.537 65.4718 354.232 65.2627 353.844C65.0595 353.449 64.958 353.004 64.958 352.508ZM69.0001 352.526C69.0001 352.186 68.9284 351.89 68.785 351.639C68.6476 351.388 68.4654 351.197 68.2383 351.065C68.0112 350.934 67.7663 350.868 67.5034 350.868C67.2405 350.868 66.9955 350.934 66.7684 351.065C66.5414 351.191 66.3561 351.379 66.2127 351.63C66.0753 351.875 66.0066 352.168 66.0066 352.508C66.0066 352.849 66.0753 353.148 66.2127 353.405C66.3561 353.662 66.5414 353.859 66.7684 353.996C67.0014 354.128 67.2464 354.193 67.5034 354.193C67.7663 354.193 68.0112 354.128 68.2383 353.996C68.4654 353.865 68.6476 353.674 68.785 353.423C68.9284 353.166 69.0001 352.867 69.0001 352.526Z" fill="#5E6C84"/>
<circle cx="44.4813" cy="351.722" r="4.48134" fill="#FF463A"/>
<path d="M116.316 353.727H113.708L113.259 355H112.193L114.425 348.762H115.608L117.839 355H116.764L116.316 353.727ZM116.029 352.894L115.016 349.999L113.994 352.894H116.029ZM120.45 354.086L121.848 350.062H122.933L121.05 355H119.832L117.958 350.062H119.052L120.45 354.086ZM127.962 352.41C127.962 352.595 127.95 352.762 127.926 352.912H124.153C124.183 353.306 124.329 353.623 124.592 353.862C124.855 354.101 125.178 354.22 125.56 354.22C126.11 354.22 126.498 353.99 126.725 353.53H127.828C127.678 353.984 127.407 354.358 127.012 354.65C126.624 354.937 126.14 355.081 125.56 355.081C125.088 355.081 124.664 354.976 124.287 354.767C123.917 354.552 123.624 354.253 123.409 353.871C123.2 353.482 123.095 353.034 123.095 352.526C123.095 352.018 123.197 351.573 123.4 351.191C123.609 350.802 123.899 350.504 124.27 350.295C124.646 350.085 125.076 349.981 125.56 349.981C126.026 349.981 126.442 350.082 126.806 350.286C127.17 350.489 127.454 350.776 127.657 351.146C127.861 351.511 127.962 351.932 127.962 352.41ZM126.896 352.087C126.89 351.711 126.755 351.409 126.492 351.182C126.229 350.955 125.904 350.841 125.515 350.841C125.163 350.841 124.861 350.955 124.61 351.182C124.359 351.403 124.21 351.705 124.162 352.087H126.896ZM129.721 350.779C129.87 350.528 130.067 350.333 130.312 350.196C130.563 350.053 130.859 349.981 131.199 349.981V351.038H130.939C130.539 351.038 130.234 351.14 130.025 351.343C129.822 351.546 129.721 351.899 129.721 352.401V355H128.699V350.062H129.721V350.779ZM131.529 352.508C131.529 352.012 131.631 351.573 131.834 351.191C132.043 350.808 132.324 350.513 132.676 350.304C133.035 350.088 133.429 349.981 133.859 349.981C134.248 349.981 134.585 350.059 134.872 350.214C135.165 350.363 135.398 350.552 135.571 350.779V350.062H136.602V355H135.571V354.265C135.398 354.498 135.162 354.692 134.863 354.848C134.564 355.003 134.224 355.081 133.842 355.081C133.417 355.081 133.029 354.973 132.676 354.758C132.324 354.537 132.043 354.232 131.834 353.844C131.631 353.449 131.529 353.004 131.529 352.508ZM135.571 352.526C135.571 352.186 135.5 351.89 135.356 351.639C135.219 351.388 135.037 351.197 134.809 351.065C134.582 350.934 134.337 350.868 134.075 350.868C133.812 350.868 133.567 350.934 133.34 351.065C133.113 351.191 132.927 351.379 132.784 351.63C132.646 351.875 132.578 352.168 132.578 352.508C132.578 352.849 132.646 353.148 132.784 353.405C132.927 353.662 133.113 353.859 133.34 353.996C133.573 354.128 133.818 354.193 134.075 354.193C134.337 354.193 134.582 354.128 134.809 353.996C135.037 353.865 135.219 353.674 135.356 353.423C135.5 353.166 135.571 352.867 135.571 352.526ZM139.665 349.981C140.047 349.981 140.385 350.059 140.678 350.214C140.976 350.363 141.209 350.552 141.377 350.779V350.062H142.407V355.081C142.407 355.535 142.312 355.938 142.121 356.291C141.929 356.649 141.652 356.93 141.287 357.133C140.929 357.336 140.498 357.438 139.996 357.438C139.327 357.438 138.772 357.28 138.329 356.963C137.887 356.652 137.636 356.228 137.577 355.69H138.589C138.667 355.947 138.831 356.153 139.082 356.309C139.339 356.47 139.644 356.551 139.996 356.551C140.409 356.551 140.74 356.425 140.991 356.174C141.248 355.923 141.377 355.559 141.377 355.081V354.256C141.203 354.489 140.967 354.686 140.669 354.848C140.376 355.003 140.041 355.081 139.665 355.081C139.235 355.081 138.84 354.973 138.482 354.758C138.129 354.537 137.848 354.232 137.639 353.844C137.436 353.449 137.335 353.004 137.335 352.508C137.335 352.012 137.436 351.573 137.639 351.191C137.848 350.808 138.129 350.513 138.482 350.304C138.84 350.088 139.235 349.981 139.665 349.981ZM141.377 352.526C141.377 352.186 141.305 351.89 141.162 351.639C141.024 351.388 140.842 351.197 140.615 351.065C140.388 350.934 140.143 350.868 139.88 350.868C139.617 350.868 139.372 350.934 139.145 351.065C138.918 351.191 138.733 351.379 138.589 351.63C138.452 351.875 138.383 352.168 138.383 352.508C138.383 352.849 138.452 353.148 138.589 353.405C138.733 353.662 138.918 353.859 139.145 353.996C139.378 354.128 139.623 354.193 139.88 354.193C140.143 354.193 140.388 354.128 140.615 353.996C140.842 353.865 141.024 353.674 141.162 353.423C141.305 353.166 141.377 352.867 141.377 352.526ZM148.007 352.41C148.007 352.595 147.995 352.762 147.971 352.912H144.198C144.227 353.306 144.374 353.623 144.637 353.862C144.9 354.101 145.222 354.22 145.605 354.22C146.154 354.22 146.543 353.99 146.77 353.53H147.872C147.723 353.984 147.451 354.358 147.057 354.65C146.668 354.937 146.184 355.081 145.605 355.081C145.133 355.081 144.708 354.976 144.332 354.767C143.962 354.552 143.669 354.253 143.454 353.871C143.245 353.482 143.14 353.034 143.14 352.526C143.14 352.018 143.242 351.573 143.445 351.191C143.654 350.802 143.944 350.504 144.314 350.295C144.691 350.085 145.121 349.981 145.605 349.981C146.071 349.981 146.486 350.082 146.851 350.286C147.215 350.489 147.499 350.776 147.702 351.146C147.905 351.511 148.007 351.932 148.007 352.41ZM146.94 352.087C146.934 351.711 146.8 351.409 146.537 351.182C146.274 350.955 145.948 350.841 145.56 350.841C145.207 350.841 144.906 350.955 144.655 351.182C144.404 351.403 144.254 351.705 144.207 352.087H146.94Z" fill="#5E6C84"/>
<circle cx="102.925" cy="351.722" r="4.48134" fill="#FFA100"/>
<path d="M194.512 350.563C194.351 350.253 194.127 350.02 193.84 349.864C193.553 349.703 193.222 349.622 192.845 349.622C192.433 349.622 192.066 349.715 191.743 349.9C191.42 350.085 191.166 350.348 190.981 350.689C190.802 351.03 190.712 351.424 190.712 351.872C190.712 352.32 190.802 352.718 190.981 353.064C191.166 353.405 191.42 353.668 191.743 353.853C192.066 354.038 192.433 354.131 192.845 354.131C193.401 354.131 193.852 353.975 194.199 353.665C194.545 353.354 194.757 352.933 194.835 352.401H192.496V351.585H195.929V352.383C195.863 352.867 195.69 353.312 195.409 353.718C195.134 354.125 194.772 354.45 194.324 354.695C193.882 354.934 193.389 355.054 192.845 355.054C192.26 355.054 191.725 354.919 191.241 354.65C190.757 354.376 190.372 353.996 190.085 353.512C189.804 353.028 189.664 352.481 189.664 351.872C189.664 351.263 189.804 350.716 190.085 350.232C190.372 349.748 190.757 349.371 191.241 349.103C191.731 348.828 192.266 348.69 192.845 348.69C193.509 348.69 194.097 348.855 194.611 349.183C195.131 349.506 195.507 349.966 195.74 350.563H194.512ZM198.81 355.081C198.343 355.081 197.922 354.976 197.546 354.767C197.169 354.552 196.874 354.253 196.658 353.871C196.443 353.482 196.336 353.034 196.336 352.526C196.336 352.024 196.446 351.579 196.667 351.191C196.889 350.802 197.19 350.504 197.573 350.295C197.955 350.085 198.382 349.981 198.854 349.981C199.326 349.981 199.754 350.085 200.136 350.295C200.518 350.504 200.82 350.802 201.041 351.191C201.262 351.579 201.373 352.024 201.373 352.526C201.373 353.028 201.259 353.473 201.032 353.862C200.805 354.25 200.494 354.552 200.1 354.767C199.712 354.976 199.282 355.081 198.81 355.081ZM198.81 354.193C199.072 354.193 199.317 354.131 199.544 354.005C199.777 353.88 199.966 353.691 200.109 353.44C200.253 353.19 200.324 352.885 200.324 352.526C200.324 352.168 200.255 351.866 200.118 351.621C199.981 351.37 199.798 351.182 199.571 351.056C199.344 350.931 199.099 350.868 198.836 350.868C198.573 350.868 198.329 350.931 198.101 351.056C197.88 351.182 197.704 351.37 197.573 351.621C197.441 351.866 197.375 352.168 197.375 352.526C197.375 353.058 197.51 353.47 197.779 353.763C198.054 354.05 198.397 354.193 198.81 354.193ZM204.256 355.081C203.79 355.081 203.369 354.976 202.992 354.767C202.616 354.552 202.32 354.253 202.105 353.871C201.89 353.482 201.782 353.034 201.782 352.526C201.782 352.024 201.893 351.579 202.114 351.191C202.335 350.802 202.637 350.504 203.019 350.295C203.402 350.085 203.829 349.981 204.301 349.981C204.773 349.981 205.2 350.085 205.583 350.295C205.965 350.504 206.267 350.802 206.488 351.191C206.709 351.579 206.819 352.024 206.819 352.526C206.819 353.028 206.706 353.473 206.479 353.862C206.252 354.25 205.941 354.552 205.547 354.767C205.158 354.976 204.728 355.081 204.256 355.081ZM204.256 354.193C204.519 354.193 204.764 354.131 204.991 354.005C205.224 353.88 205.412 353.691 205.556 353.44C205.699 353.19 205.771 352.885 205.771 352.526C205.771 352.168 205.702 351.866 205.565 351.621C205.427 351.37 205.245 351.182 205.018 351.056C204.791 350.931 204.546 350.868 204.283 350.868C204.02 350.868 203.775 350.931 203.548 351.056C203.327 351.182 203.151 351.37 203.019 351.621C202.888 351.866 202.822 352.168 202.822 352.526C202.822 353.058 202.957 353.47 203.225 353.763C203.5 354.05 203.844 354.193 204.256 354.193ZM207.22 352.508C207.22 352.012 207.322 351.573 207.525 351.191C207.734 350.808 208.015 350.513 208.367 350.304C208.726 350.088 209.123 349.981 209.559 349.981C209.882 349.981 210.199 350.053 210.509 350.196C210.826 350.333 211.077 350.519 211.262 350.752V348.368H212.293V355H211.262V354.256C211.095 354.495 210.862 354.692 210.563 354.848C210.27 355.003 209.933 355.081 209.55 355.081C209.12 355.081 208.726 354.973 208.367 354.758C208.015 354.537 207.734 354.232 207.525 353.844C207.322 353.449 207.22 353.004 207.22 352.508ZM211.262 352.526C211.262 352.186 211.19 351.89 211.047 351.639C210.91 351.388 210.727 351.197 210.5 351.065C210.273 350.934 210.028 350.868 209.765 350.868C209.503 350.868 209.258 350.934 209.03 351.065C208.803 351.191 208.618 351.379 208.475 351.63C208.337 351.875 208.269 352.168 208.269 352.508C208.269 352.849 208.337 353.148 208.475 353.405C208.618 353.662 208.803 353.859 209.03 353.996C209.264 354.128 209.508 354.193 209.765 354.193C210.028 354.193 210.273 354.128 210.5 353.996C210.727 353.865 210.91 353.674 211.047 353.423C211.19 353.166 211.262 352.867 211.262 352.526Z" fill="#5E6C84"/>
<circle cx="180.37" cy="351.722" r="4.48134" fill="#04CD67"/>
<g clip-path="url(#clip0_1753_30060)">
<rect x="381.414" y="0.35" width="190.3" height="137.3" rx="9.65" fill="white" stroke="#C1C7D0" stroke-width="0.7"/>
<path d="M400.064 53.0882C400.064 36.471 413.535 23 430.153 23" stroke="#CA7CFB" stroke-width="14.6143" stroke-linecap="round"/>
<path d="M460.241 51.3687C460.241 67.9859 446.77 81.4569 430.153 81.4569C413.535 81.4569 400.064 67.9859 400.064 51.3687" stroke="#705AFE" stroke-width="14.6143" stroke-linecap="round"/>
<path d="M460.241 53.0882C460.241 36.471 446.77 23 430.153 23" stroke="#131453" stroke-width="14.6143" stroke-linecap="round"/>
<rect x="481.064" y="86" width="11" height="38" rx="5.5" fill="#705AFE"/>
<rect x="497.064" y="93" width="10" height="31" rx="5" fill="#CA7CFB"/>
<rect x="512.064" y="93" width="11" height="31" rx="5.5" fill="#131453"/>
<rect x="528.064" y="81" width="10" height="43" rx="5" fill="#705AFE"/>
<rect x="543.064" y="93" width="11" height="31" rx="5.5" fill="#CA7CFB"/>
<circle cx="398.264" cy="104.2" r="2.2" fill="#705AFE"/>
<circle cx="440.264" cy="104.2" r="2.2" fill="#B764D8"/>
<circle cx="398.264" cy="115.2" r="2.2" fill="#E1E2E9"/>
<path d="M405.746 103.667C405.746 103.836 405.706 103.996 405.627 104.145C405.547 104.295 405.419 104.418 405.244 104.513C405.069 104.606 404.844 104.652 404.57 104.652H403.968V106H403.423V102.678H404.57C404.825 102.678 405.04 102.723 405.215 102.812C405.394 102.898 405.526 103.016 405.612 103.165C405.701 103.315 405.746 103.483 405.746 103.667ZM404.57 104.207C404.777 104.207 404.932 104.161 405.034 104.069C405.136 103.973 405.187 103.839 405.187 103.667C405.187 103.304 404.981 103.122 404.57 103.122H403.968V104.207H404.57ZM408.536 104.619C408.536 104.717 408.53 104.807 408.517 104.886H406.505C406.521 105.097 406.599 105.265 406.739 105.393C406.879 105.52 407.051 105.584 407.255 105.584C407.548 105.584 407.756 105.461 407.877 105.216H408.465C408.385 105.458 408.24 105.657 408.03 105.814C407.822 105.967 407.564 106.043 407.255 106.043C407.003 106.043 406.777 105.987 406.576 105.876C406.379 105.761 406.223 105.602 406.108 105.398C405.996 105.191 405.941 104.952 405.941 104.681C405.941 104.41 405.995 104.172 406.103 103.968C406.215 103.761 406.369 103.602 406.567 103.49C406.768 103.379 406.997 103.323 407.255 103.323C407.504 103.323 407.725 103.377 407.92 103.486C408.114 103.594 408.265 103.747 408.374 103.945C408.482 104.139 408.536 104.364 408.536 104.619ZM407.967 104.446C407.964 104.246 407.893 104.085 407.752 103.964C407.612 103.843 407.438 103.782 407.231 103.782C407.043 103.782 406.882 103.843 406.749 103.964C406.615 104.082 406.535 104.243 406.51 104.446H407.967ZM409.474 103.749C409.554 103.615 409.659 103.511 409.79 103.438C409.923 103.361 410.081 103.323 410.263 103.323V103.887H410.124C409.911 103.887 409.748 103.941 409.637 104.05C409.528 104.158 409.474 104.346 409.474 104.614V106H408.929V103.366H409.474V103.749ZM411.724 103.811H411.237V106H410.687V103.811H410.376V103.366H410.687V103.18C410.687 102.877 410.767 102.657 410.926 102.52C411.089 102.38 411.342 102.31 411.686 102.31V102.764C411.52 102.764 411.404 102.796 411.337 102.86C411.27 102.92 411.237 103.027 411.237 103.18V103.366H411.724V103.811ZM413.206 106.043C412.958 106.043 412.733 105.987 412.532 105.876C412.332 105.761 412.174 105.602 412.059 105.398C411.944 105.191 411.887 104.952 411.887 104.681C411.887 104.413 411.946 104.176 412.064 103.968C412.182 103.761 412.343 103.602 412.547 103.49C412.751 103.379 412.978 103.323 413.23 103.323C413.482 103.323 413.71 103.379 413.914 103.49C414.118 103.602 414.279 103.761 414.397 103.968C414.514 104.176 414.573 104.413 414.573 104.681C414.573 104.948 414.513 105.186 414.392 105.393C414.271 105.6 414.105 105.761 413.895 105.876C413.688 105.987 413.458 106.043 413.206 106.043ZM413.206 105.57C413.347 105.57 413.477 105.536 413.598 105.469C413.723 105.402 413.823 105.302 413.899 105.168C413.976 105.034 414.014 104.872 414.014 104.681C414.014 104.49 413.978 104.329 413.904 104.198C413.831 104.064 413.734 103.964 413.613 103.897C413.492 103.83 413.361 103.796 413.221 103.796C413.08 103.796 412.95 103.83 412.829 103.897C412.711 103.964 412.617 104.064 412.547 104.198C412.477 104.329 412.442 104.49 412.442 104.681C412.442 104.964 412.513 105.184 412.657 105.34C412.803 105.493 412.986 105.57 413.206 105.57ZM415.514 103.749C415.593 103.615 415.698 103.511 415.829 103.438C415.963 103.361 416.121 103.323 416.302 103.323V103.887H416.164C415.95 103.887 415.788 103.941 415.676 104.05C415.568 104.158 415.514 104.346 415.514 104.614V106H414.969V103.366H415.514V103.749ZM419.848 103.323C420.055 103.323 420.24 103.366 420.403 103.452C420.568 103.538 420.697 103.666 420.79 103.835C420.885 104.004 420.933 104.207 420.933 104.446V106H420.393V104.528C420.393 104.292 420.334 104.112 420.216 103.988C420.098 103.86 419.937 103.796 419.733 103.796C419.529 103.796 419.367 103.86 419.246 103.988C419.128 104.112 419.069 104.292 419.069 104.528V106H418.529V104.528C418.529 104.292 418.47 104.112 418.352 103.988C418.234 103.86 418.073 103.796 417.869 103.796C417.665 103.796 417.503 103.86 417.382 103.988C417.264 104.112 417.205 104.292 417.205 104.528V106H416.66V103.366H417.205V103.667C417.294 103.559 417.407 103.475 417.544 103.414C417.681 103.353 417.828 103.323 417.984 103.323C418.194 103.323 418.382 103.368 418.548 103.457C418.714 103.546 418.841 103.675 418.93 103.844C419.01 103.685 419.134 103.559 419.303 103.467C419.472 103.371 419.654 103.323 419.848 103.323ZM421.301 104.671C421.301 104.407 421.356 104.172 421.464 103.968C421.576 103.765 421.725 103.607 421.913 103.495C422.105 103.381 422.315 103.323 422.544 103.323C422.751 103.323 422.931 103.365 423.084 103.447C423.241 103.527 423.365 103.628 423.457 103.749V103.366H424.007V106H423.457V105.608C423.365 105.732 423.239 105.836 423.08 105.919C422.92 106.002 422.739 106.043 422.535 106.043C422.308 106.043 422.101 105.986 421.913 105.871C421.725 105.753 421.576 105.591 421.464 105.383C421.356 105.173 421.301 104.936 421.301 104.671ZM423.457 104.681C423.457 104.499 423.419 104.341 423.343 104.207C423.269 104.074 423.172 103.972 423.051 103.902C422.93 103.831 422.799 103.796 422.659 103.796C422.519 103.796 422.388 103.831 422.267 103.902C422.146 103.968 422.047 104.069 421.971 104.203C421.897 104.333 421.861 104.49 421.861 104.671C421.861 104.853 421.897 105.012 421.971 105.149C422.047 105.286 422.146 105.391 422.267 105.465C422.391 105.535 422.522 105.57 422.659 105.57C422.799 105.57 422.93 105.535 423.051 105.465C423.172 105.395 423.269 105.293 423.343 105.159C423.419 105.022 423.457 104.862 423.457 104.681ZM425.908 103.323C426.115 103.323 426.3 103.366 426.463 103.452C426.628 103.538 426.757 103.666 426.85 103.835C426.942 104.004 426.988 104.207 426.988 104.446V106H426.448V104.528C426.448 104.292 426.389 104.112 426.271 103.988C426.154 103.86 425.993 103.796 425.789 103.796C425.585 103.796 425.422 103.86 425.301 103.988C425.183 104.112 425.124 104.292 425.124 104.528V106H424.579V103.366H425.124V103.667C425.213 103.559 425.327 103.475 425.464 103.414C425.604 103.353 425.752 103.323 425.908 103.323ZM427.358 104.681C427.358 104.41 427.413 104.172 427.521 103.968C427.633 103.761 427.785 103.602 427.98 103.49C428.174 103.379 428.397 103.323 428.649 103.323C428.968 103.323 429.231 103.4 429.438 103.553C429.648 103.702 429.79 103.918 429.863 104.198H429.275C429.227 104.067 429.151 103.965 429.046 103.892C428.941 103.819 428.808 103.782 428.649 103.782C428.426 103.782 428.248 103.862 428.114 104.021C427.983 104.177 427.918 104.397 427.918 104.681C427.918 104.964 427.983 105.186 428.114 105.345C428.248 105.504 428.426 105.584 428.649 105.584C428.965 105.584 429.173 105.446 429.275 105.168H429.863C429.787 105.436 429.643 105.649 429.433 105.809C429.223 105.965 428.961 106.043 428.649 106.043C428.397 106.043 428.174 105.987 427.98 105.876C427.785 105.761 427.633 105.602 427.521 105.398C427.413 105.191 427.358 104.952 427.358 104.681ZM432.677 104.619C432.677 104.717 432.67 104.807 432.658 104.886H430.645C430.661 105.097 430.739 105.265 430.879 105.393C431.02 105.52 431.192 105.584 431.396 105.584C431.689 105.584 431.896 105.461 432.017 105.216H432.605C432.525 105.458 432.38 105.657 432.17 105.814C431.963 105.967 431.705 106.043 431.396 106.043C431.144 106.043 430.918 105.987 430.717 105.876C430.519 105.761 430.363 105.602 430.249 105.398C430.137 105.191 430.081 104.952 430.081 104.681C430.081 104.41 430.135 104.172 430.244 103.968C430.355 103.761 430.51 103.602 430.707 103.49C430.908 103.379 431.138 103.323 431.396 103.323C431.644 103.323 431.866 103.377 432.06 103.486C432.255 103.594 432.406 103.747 432.514 103.945C432.623 104.139 432.677 104.364 432.677 104.619ZM432.108 104.446C432.105 104.246 432.033 104.085 431.893 103.964C431.753 103.843 431.579 103.782 431.372 103.782C431.184 103.782 431.023 103.843 430.889 103.964C430.755 104.082 430.676 104.243 430.65 104.446H432.108Z" fill="#5E6C84"/>
<path d="M446.518 106.033C446.295 106.033 446.094 105.995 445.915 105.919C445.737 105.839 445.597 105.728 445.495 105.584C445.393 105.441 445.342 105.273 445.342 105.082H445.925C445.938 105.226 445.993 105.344 446.092 105.436C446.194 105.528 446.336 105.575 446.518 105.575C446.706 105.575 446.852 105.53 446.957 105.441C447.062 105.348 447.115 105.23 447.115 105.087C447.115 104.975 447.082 104.885 447.015 104.815C446.951 104.744 446.87 104.69 446.771 104.652C446.675 104.614 446.541 104.572 446.369 104.528C446.153 104.47 445.976 104.413 445.839 104.356C445.705 104.295 445.59 104.203 445.495 104.078C445.399 103.954 445.351 103.788 445.351 103.581C445.351 103.39 445.399 103.223 445.495 103.079C445.59 102.936 445.724 102.826 445.896 102.75C446.068 102.673 446.267 102.635 446.494 102.635C446.816 102.635 447.078 102.716 447.282 102.879C447.49 103.038 447.604 103.258 447.627 103.538H447.024C447.015 103.417 446.957 103.314 446.852 103.228C446.747 103.142 446.608 103.099 446.436 103.099C446.28 103.099 446.153 103.138 446.054 103.218C445.955 103.298 445.906 103.412 445.906 103.562C445.906 103.664 445.936 103.749 445.997 103.816C446.06 103.879 446.14 103.93 446.236 103.968C446.331 104.007 446.462 104.048 446.628 104.093C446.847 104.153 447.026 104.214 447.163 104.274C447.303 104.335 447.421 104.429 447.517 104.556C447.615 104.681 447.665 104.848 447.665 105.058C447.665 105.227 447.619 105.387 447.526 105.536C447.437 105.686 447.305 105.807 447.129 105.9C446.957 105.989 446.753 106.033 446.518 106.033ZM448.8 103.811V105.269C448.8 105.367 448.822 105.439 448.867 105.484C448.915 105.525 448.994 105.546 449.106 105.546H449.441V106H449.01C448.765 106 448.577 105.943 448.446 105.828C448.316 105.713 448.25 105.527 448.25 105.269V103.811H447.94V103.366H448.25V102.711H448.8V103.366H449.441V103.811H448.8ZM450.344 103.749C450.424 103.615 450.529 103.511 450.66 103.438C450.794 103.361 450.951 103.323 451.133 103.323V103.887H450.994C450.781 103.887 450.618 103.941 450.507 104.05C450.399 104.158 450.344 104.346 450.344 104.614V106H449.799V103.366H450.344V103.749ZM453.876 103.366V106H453.331V105.689C453.245 105.798 453.132 105.884 452.991 105.947C452.854 106.008 452.708 106.038 452.552 106.038C452.345 106.038 452.158 105.995 451.992 105.909C451.83 105.823 451.701 105.696 451.605 105.527C451.513 105.358 451.467 105.154 451.467 104.915V103.366H452.007V104.834C452.007 105.069 452.066 105.251 452.184 105.379C452.302 105.503 452.462 105.565 452.666 105.565C452.87 105.565 453.031 105.503 453.149 105.379C453.27 105.251 453.331 105.069 453.331 104.834V103.366H453.876ZM454.27 104.681C454.27 104.41 454.324 104.172 454.432 103.968C454.544 103.761 454.697 103.602 454.891 103.49C455.086 103.379 455.309 103.323 455.56 103.323C455.879 103.323 456.142 103.4 456.349 103.553C456.559 103.702 456.701 103.918 456.774 104.198H456.187C456.139 104.067 456.062 103.965 455.957 103.892C455.852 103.819 455.72 103.782 455.56 103.782C455.337 103.782 455.159 103.862 455.025 104.021C454.894 104.177 454.829 104.397 454.829 104.681C454.829 104.964 454.894 105.186 455.025 105.345C455.159 105.504 455.337 105.584 455.56 105.584C455.876 105.584 456.085 105.446 456.187 105.168H456.774C456.698 105.436 456.555 105.649 456.344 105.809C456.134 105.965 455.873 106.043 455.56 106.043C455.309 106.043 455.086 105.987 454.891 105.876C454.697 105.761 454.544 105.602 454.432 105.398C454.324 105.191 454.27 104.952 454.27 104.681ZM457.81 103.811V105.269C457.81 105.367 457.832 105.439 457.877 105.484C457.925 105.525 458.004 105.546 458.116 105.546H458.45V106H458.02C457.775 106 457.587 105.943 457.456 105.828C457.325 105.713 457.26 105.527 457.26 105.269V103.811H456.949V103.366H457.26V102.711H457.81V103.366H458.45V103.811H457.81ZM461.194 103.366V106H460.649V105.689C460.563 105.798 460.45 105.884 460.31 105.947C460.173 106.008 460.027 106.038 459.87 106.038C459.663 106.038 459.477 105.995 459.311 105.909C459.149 105.823 459.02 105.696 458.924 105.527C458.832 105.358 458.785 105.154 458.785 104.915V103.366H459.325V104.834C459.325 105.069 459.384 105.251 459.502 105.379C459.62 105.503 459.781 105.565 459.985 105.565C460.189 105.565 460.35 105.503 460.468 105.379C460.589 105.251 460.649 105.069 460.649 104.834V103.366H461.194ZM462.315 103.749C462.395 103.615 462.5 103.511 462.63 103.438C462.764 103.361 462.922 103.323 463.104 103.323V103.887H462.965C462.751 103.887 462.589 103.941 462.477 104.05C462.369 104.158 462.315 104.346 462.315 104.614V106H461.77V103.366H462.315V103.749ZM465.875 104.619C465.875 104.717 465.869 104.807 465.856 104.886H463.844C463.859 105.097 463.938 105.265 464.078 105.393C464.218 105.52 464.39 105.584 464.594 105.584C464.887 105.584 465.094 105.461 465.215 105.216H465.803C465.724 105.458 465.579 105.657 465.368 105.814C465.161 105.967 464.903 106.043 464.594 106.043C464.342 106.043 464.116 105.987 463.915 105.876C463.718 105.761 463.561 105.602 463.447 105.398C463.335 105.191 463.279 104.952 463.279 104.681C463.279 104.41 463.334 104.172 463.442 103.968C463.554 103.761 463.708 103.602 463.906 103.49C464.106 103.379 464.336 103.323 464.594 103.323C464.843 103.323 465.064 103.377 465.258 103.486C465.453 103.594 465.604 103.747 465.712 103.945C465.821 104.139 465.875 104.364 465.875 104.619ZM465.306 104.446C465.303 104.246 465.231 104.085 465.091 103.964C464.951 103.843 464.777 103.782 464.57 103.782C464.382 103.782 464.221 103.843 464.087 103.964C463.953 104.082 463.874 104.243 463.848 104.446H465.306Z" fill="#5E6C84"/>
<path d="M407.749 113.678L406.764 117H406.148L405.45 114.486L404.709 117L404.097 117.005L403.155 113.678H403.734L404.422 116.383L405.168 113.678H405.779L406.473 116.369L407.166 113.678H407.749ZM407.873 115.671C407.873 115.407 407.927 115.172 408.036 114.968C408.147 114.765 408.297 114.607 408.485 114.495C408.676 114.381 408.887 114.323 409.116 114.323C409.323 114.323 409.503 114.365 409.656 114.447C409.812 114.527 409.937 114.628 410.029 114.749V114.366H410.579V117H410.029V116.608C409.937 116.732 409.811 116.836 409.651 116.919C409.492 117.002 409.31 117.043 409.106 117.043C408.88 117.043 408.673 116.986 408.485 116.871C408.297 116.753 408.147 116.591 408.036 116.383C407.927 116.173 407.873 115.936 407.873 115.671ZM410.029 115.681C410.029 115.499 409.991 115.341 409.914 115.207C409.841 115.074 409.744 114.972 409.623 114.902C409.502 114.831 409.371 114.796 409.231 114.796C409.091 114.796 408.96 114.831 408.839 114.902C408.718 114.968 408.619 115.069 408.542 115.203C408.469 115.333 408.433 115.49 408.433 115.671C408.433 115.853 408.469 116.012 408.542 116.149C408.619 116.286 408.718 116.391 408.839 116.465C408.963 116.535 409.094 116.57 409.231 116.57C409.371 116.57 409.502 116.535 409.623 116.465C409.744 116.395 409.841 116.293 409.914 116.159C409.991 116.022 410.029 115.862 410.029 115.681ZM411.787 114.811V116.269C411.787 116.367 411.809 116.439 411.854 116.484C411.902 116.525 411.981 116.546 412.093 116.546H412.427V117H411.997C411.752 117 411.564 116.943 411.433 116.828C411.302 116.713 411.237 116.527 411.237 116.269V114.811H410.926V114.366H411.237V113.711H411.787V114.366H412.427V114.811H411.787ZM415.2 115.619C415.2 115.717 415.194 115.807 415.181 115.886H413.169C413.184 116.097 413.263 116.265 413.403 116.393C413.543 116.52 413.715 116.584 413.919 116.584C414.212 116.584 414.419 116.461 414.54 116.216H415.128C415.049 116.458 414.904 116.657 414.693 116.814C414.486 116.967 414.228 117.043 413.919 117.043C413.667 117.043 413.441 116.987 413.24 116.876C413.043 116.761 412.887 116.602 412.772 116.398C412.66 116.191 412.605 115.952 412.605 115.681C412.605 115.41 412.659 115.172 412.767 114.968C412.879 114.761 413.033 114.602 413.231 114.49C413.431 114.379 413.661 114.323 413.919 114.323C414.168 114.323 414.389 114.377 414.583 114.486C414.778 114.594 414.929 114.747 415.038 114.945C415.146 115.139 415.2 115.364 415.2 115.619ZM414.631 115.446C414.628 115.246 414.556 115.085 414.416 114.964C414.276 114.843 414.102 114.782 413.895 114.782C413.707 114.782 413.546 114.843 413.412 114.964C413.278 115.082 413.199 115.243 413.173 115.446H414.631ZM416.138 114.749C416.217 114.615 416.323 114.511 416.453 114.438C416.587 114.361 416.745 114.323 416.927 114.323V114.887H416.788C416.574 114.887 416.412 114.941 416.3 115.05C416.192 115.158 416.138 115.346 416.138 115.614V117H415.593V114.366H416.138V114.749ZM418.388 114.811H417.901V117H417.351V114.811H417.04V114.366H417.351V114.18C417.351 113.877 417.431 113.657 417.59 113.52C417.752 113.38 418.006 113.31 418.35 113.31V113.764C418.184 113.764 418.068 113.796 418.001 113.86C417.934 113.92 417.901 114.027 417.901 114.18V114.366H418.388V114.811ZM418.546 115.671C418.546 115.407 418.6 115.172 418.709 114.968C418.82 114.765 418.97 114.607 419.158 114.495C419.349 114.381 419.559 114.323 419.789 114.323C419.996 114.323 420.176 114.365 420.329 114.447C420.485 114.527 420.609 114.628 420.702 114.749V114.366H421.252V117H420.702V116.608C420.609 116.732 420.484 116.836 420.324 116.919C420.165 117.002 419.983 117.043 419.779 117.043C419.553 117.043 419.346 116.986 419.158 116.871C418.97 116.753 418.82 116.591 418.709 116.383C418.6 116.173 418.546 115.936 418.546 115.671ZM420.702 115.681C420.702 115.499 420.664 115.341 420.587 115.207C420.514 115.074 420.417 114.972 420.296 114.902C420.174 114.831 420.044 114.796 419.904 114.796C419.763 114.796 419.633 114.831 419.512 114.902C419.391 114.968 419.292 115.069 419.215 115.203C419.142 115.333 419.105 115.49 419.105 115.671C419.105 115.853 419.142 116.012 419.215 116.149C419.292 116.286 419.391 116.391 419.512 116.465C419.636 116.535 419.767 116.57 419.904 116.57C420.044 116.57 420.174 116.535 420.296 116.465C420.417 116.395 420.514 116.293 420.587 116.159C420.664 116.022 420.702 115.862 420.702 115.681ZM422.369 113.463V117H421.824V113.463H422.369ZM423.486 113.463V117H422.941V113.463H423.486Z" fill="#5E6C84"/>
<rect x="481.064" y="38" width="71" height="8" rx="4" fill="#F9F1FF"/>
<rect x="481.064" y="23" width="36" height="8" rx="4" fill="#705AFE"/>
<rect x="481.064" y="51" width="71" height="8" rx="4" fill="#F9F1FF"/>
<rect x="481.064" y="64" width="44" height="8" rx="4" fill="#F9F1FF"/>
<rect x="402" y="102" width="32" height="5" rx="2.5" fill="#F9F1FF"/>
<rect x="402" y="113" width="32" height="5" rx="2.5" fill="#F9F1FF"/>
<rect x="445" y="102" width="32" height="5" rx="2.5" fill="#F9F1FF"/>
</g>
<path d="M503 138L503 335" stroke="url(#paint8_linear_1753_30060)" stroke-width="2" stroke-linecap="round" stroke-dasharray="8 8"/>
<circle cx="517.5" cy="384.5" r="49.5" fill="#F9ECFF"/>
<circle cx="508" cy="391" r="49" fill="#F6E0FF"/>
<circle cx="501" cy="397" r="46.5649" fill="white" stroke="url(#paint9_linear_1753_30060)" stroke-width="0.870176"/>
<path d="M519.708 394.094L512.753 390.041L511.554 389.514L483.104 389.728V404.393L519.708 404.409V394.094Z" fill="white"/>
<path d="M507.047 403.057C507.387 401.87 507.257 400.783 506.69 399.975C506.171 399.234 505.296 398.806 504.242 398.756L484.287 398.493C484.157 398.493 484.044 398.427 483.979 398.328C483.914 398.229 483.898 398.097 483.93 397.965C483.995 397.768 484.189 397.619 484.4 397.603L504.534 397.339C506.917 397.224 509.511 395.263 510.418 392.857L511.569 389.809C511.618 389.677 511.634 389.545 511.602 389.414C510.305 383.449 505.069 379 498.811 379C493.04 379 488.145 382.79 486.394 388.046C485.259 387.189 483.817 386.728 482.26 386.876C479.488 387.156 477.267 389.414 476.992 392.231C476.927 392.956 476.976 393.665 477.138 394.324C472.615 394.456 469 398.212 469 402.842C469 403.254 469.032 403.666 469.081 404.078C469.113 404.276 469.276 404.424 469.47 404.424H506.301C506.512 404.424 506.706 404.276 506.771 404.062L507.047 403.057Z" fill="#F38020"/>
<path d="M513.403 390.023C513.225 390.023 513.03 390.023 512.852 390.04C512.722 390.04 512.609 390.139 512.56 390.271L511.782 393.022C511.441 394.209 511.571 395.296 512.138 396.104C512.657 396.845 513.533 397.273 514.586 397.323L518.834 397.586C518.963 397.586 519.077 397.652 519.142 397.751C519.206 397.85 519.223 397.998 519.19 398.114C519.125 398.311 518.931 398.46 518.72 398.476L514.295 398.74C511.895 398.855 509.318 400.816 508.41 403.222L508.086 404.062C508.021 404.227 508.134 404.392 508.313 404.392H523.518C523.697 404.392 523.859 404.276 523.907 404.095C524.167 403.139 524.313 402.134 524.313 401.096C524.313 394.983 519.433 390.023 513.403 390.023Z" fill="#FAAE40"/>
<defs>
<linearGradient id="paint0_linear_1753_30060" x1="103.238" y1="132.274" x2="145.112" y2="100.367" gradientUnits="userSpaceOnUse">
<stop stop-color="#705AFE"/>
<stop offset="1" stop-color="#CA7CFB"/>
</linearGradient>
<linearGradient id="paint1_linear_1753_30060" x1="144.969" y1="110.26" x2="146.151" y2="124.353" gradientUnits="userSpaceOnUse">
<stop stop-color="#705AFE"/>
<stop offset="1" stop-color="#CA7CFB"/>
</linearGradient>
<linearGradient id="paint2_linear_1753_30060" x1="148.857" y1="120.995" x2="151.172" y2="134.799" gradientUnits="userSpaceOnUse">
<stop stop-color="#705AFE"/>
<stop offset="1" stop-color="#CA7CFB"/>
</linearGradient>
<linearGradient id="paint3_linear_1753_30060" x1="195.501" y1="154.12" x2="241.009" y2="180.581" gradientUnits="userSpaceOnUse">
<stop stop-color="#705AFE"/>
<stop offset="1" stop-color="#CA7CFB"/>
</linearGradient>
<linearGradient id="paint4_linear_1753_30060" x1="103.983" y1="162.008" x2="105.164" y2="176.1" gradientUnits="userSpaceOnUse">
<stop stop-color="#705AFE"/>
<stop offset="1" stop-color="#CA7CFB"/>
</linearGradient>
<linearGradient id="paint5_linear_1753_30060" x1="194.611" y1="179.251" x2="192.297" y2="165.448" gradientUnits="userSpaceOnUse">
<stop stop-color="#705AFE"/>
<stop offset="1" stop-color="#CA7CFB"/>
</linearGradient>
<linearGradient id="paint6_linear_1753_30060" x1="78.2971" y1="143.619" x2="78.312" y2="145.819" gradientUnits="userSpaceOnUse">
<stop stop-color="#705AFE"/>
<stop offset="1" stop-color="#CA7CFB"/>
</linearGradient>
<linearGradient id="paint7_linear_1753_30060" x1="223.5" y1="350.725" x2="571" y2="342.725" gradientUnits="userSpaceOnUse">
<stop stop-color="#04CD67"/>
<stop offset="1" stop-color="#018441"/>
</linearGradient>
<linearGradient id="paint8_linear_1753_30060" x1="503.098" y1="118.598" x2="500.489" y2="118.615" gradientUnits="userSpaceOnUse">
<stop stop-color="#705AFE"/>
<stop offset="1" stop-color="#CA7CFB"/>
</linearGradient>
<linearGradient id="paint9_linear_1753_30060" x1="444.742" y1="340.796" x2="565.041" y2="439.626" gradientUnits="userSpaceOnUse">
<stop stop-color="#705AFE"/>
<stop offset="1" stop-color="#CA7CFB"/>
</linearGradient>
<clipPath id="clip0_1753_30060">
<rect width="190.936" height="138" fill="white" transform="translate(381.064)"/>
</clipPath>
</defs>
</svg>
